<?xml version="1.0" encoding="UTF-8" standalone="no"?>
<!-- Created with Inkscape (http://www.inkscape.org/) -->

<svg
   xmlns:dc="http://purl.org/dc/elements/1.1/"
   xmlns:cc="http://creativecommons.org/ns#"
   xmlns:rdf="http://www.w3.org/1999/02/22-rdf-syntax-ns#"
   xmlns:svg="http://www.w3.org/2000/svg"
   xmlns="http://www.w3.org/2000/svg"
   xmlns:sodipodi="http://sodipodi.sourceforge.net/DTD/sodipodi-0.dtd"
   xmlns:inkscape="http://www.inkscape.org/namespaces/inkscape"
   width="127.8mm"
   height="24.799999mm"
   viewBox="0 0 127.8 24.799999"
   version="1.1"
   id="svg8"
   inkscape:version="0.92.4 (5da689c313, 2019-01-14)"
   sodipodi:docname="mrisc32-logo.svg"
   inkscape:export-filename="/tmp/mrisc32-logo.png"
   inkscape:export-xdpi="99.346779"
   inkscape:export-ydpi="99.346779">
  <defs
     id="defs2" />
  <sodipodi:namedview
     id="base"
     pagecolor="#ffffff"
     bordercolor="#666666"
     borderopacity="1.0"
     inkscape:pageopacity="0.0"
     inkscape:pageshadow="2"
     inkscape:zoom="1.4142136"
     inkscape:cx="248.78107"
     inkscape:cy="25.156953"
     inkscape:document-units="mm"
     inkscape:current-layer="layer1"
     showgrid="false"
     inkscape:window-width="1650"
     inkscape:window-height="899"
     inkscape:window-x="4011"
     inkscape:window-y="78"
     inkscape:window-maximized="0" />
  <metadata
     id="metadata5">
    <rdf:RDF>
      <cc:Work
         rdf:about="">
        <dc:format>image/svg+xml</dc:format>
        <dc:type
           rdf:resource="http://purl.org/dc/dcmitype/StillImage" />
        <dc:title></dc:title>
      </cc:Work>
    </rdf:RDF>
  </metadata>
  <g
     inkscape:label="Layer 1"
     inkscape:groupmode="layer"
     id="layer1"
     transform="translate(0,-272.2)">
    <g
       transform="rotate(-180,111.18348,244.94024)"
       id="g1222-7-8" />
    <g
       transform="matrix(-1,0,0,1,184.6424,11.202673)"
       id="g1222-7-3" />
    <g
       transform="matrix(-1,0,0,1,184.78612,54.970406)"
       id="g1222-7-3-9" />
    <path
       style="fill:#03a3e1;fill-opacity:1;stroke:#000000;stroke-width:0.70555556;stroke-miterlimit:4;stroke-dasharray:none;stroke-opacity:1"
       d="m 89.883275,296.17396 c -1.5103,-0.49521 -2.210887,-1.505 -2.210887,-3.18666 v -1.06448 h 0.823657 c 1.49799,0 3.964,-0.3279 5.501927,-0.73159 2.816899,-0.7394 5.022464,-2.131 5.772011,-3.64188 0.318757,-0.6425 0.466477,-2.18577 0.232637,-2.43046 -0.057,-0.0596 -0.466787,0.0453 -0.910704,0.23317 -0.881034,0.37282 -2.694115,0.81151 -3.372099,0.81591 -0.26366,0.002 -0.564647,-0.1524 -0.786227,-0.40259 -0.376148,-0.4247 -0.944698,-2.29597 -0.809568,-2.66449 0.0448,-0.12221 0.54604,-0.29794 1.168075,-0.40956 2.703505,-0.4851 6.254293,-2.0286 7.617813,-3.31136 0.90071,-0.84742 1.25488,-1.55574 1.25027,-2.5006 -0.007,-1.3314 -0.9316,-1.96692 -2.83782,-1.94953 -3.427948,0.0313 -7.847528,2.87594 -7.847528,5.05106 0,0.92664 -0.955107,1.03717 -1.663827,0.19255 -0.35295,-0.42064 -0.47391,-0.72038 -0.47391,-1.17439 0,-2.78983 7.698651,-6.49068 12.116685,-5.82467 2.12145,0.3198 3.26712,1.27673 3.61243,3.01728 0.21301,1.07369 -0.0894,2.48641 -0.7698,3.59588 -0.47371,0.77244 -2.21321,2.60895 -2.93653,3.10029 l -0.42194,0.28663 0.62642,0.71112 c 2.27757,2.58549 1.60411,6.45323 -1.59646,9.16865 -1.974897,1.67554 -4.947422,2.82704 -8.199258,3.17622 -1.979927,0.21261 -3.114977,0.19611 -3.885367,-0.0565 z m 17.258335,-1.58232 c -0.79885,-0.83591 -1.09942,-2.66928 -0.63022,-3.8443 0.34069,-0.85324 1.19597,-1.4472 4.90525,-3.40658 6.41291,-3.38753 8.98942,-5.00698 10.88004,-6.83861 1.76725,-1.7121 2.4657,-3.60545 1.70389,-4.61886 -0.55264,-0.73518 -1.15384,-0.95749 -2.58235,-0.95489 -1.60544,0.003 -3.26269,0.46184 -4.91382,1.36071 -2.40198,1.30763 -3.09599,2.69855 -1.86202,3.73185 l 0.38369,0.3213 -0.39824,0.39147 c -0.2925,0.28753 -0.55194,0.38506 -0.97717,0.36732 -1.24995,-0.0522 -2.61576,-1.01424 -2.61576,-1.84253 0,-0.18522 0.14352,-0.647 0.31895,-1.02619 0.99104,-2.1422 5.46187,-4.49882 9.56313,-5.04085 2.95419,-0.39043 5.13795,0.52108 5.91423,2.46861 0.30813,0.77307 0.30295,2.4657 -0.0105,3.43481 -0.93846,2.90126 -4.64298,6.36421 -9.88586,9.24122 l -1.81123,0.99392 3.26184,0.0743 c 3.69619,0.0842 4.96207,0.35837 5.82511,1.26144 0.41507,0.43433 0.44516,0.54279 0.3864,1.3926 -0.0396,0.57261 -0.19046,1.13623 -0.39845,1.48837 l -0.33476,0.56679 -0.80284,-0.24392 c -0.60552,-0.18397 -1.62845,-0.24666 -4.16215,-0.25508 -3.7142,-0.0123 -5.43486,0.19399 -8.60009,1.03127 -2.29063,0.60593 -2.53009,0.60182 -3.15704,-0.0542 z"
       id="path1593-3-5-6-4-1"
       inkscape:connector-curvature="0" />
    <path
       inkscape:connector-curvature="0"
       style="opacity:1;fill:#ffffff;fill-opacity:1;fill-rule:nonzero;stroke:#000000;stroke-width:0.70555556;stroke-linecap:round;stroke-linejoin:miter;stroke-miterlimit:4;stroke-dasharray:none;stroke-dashoffset:0;stroke-opacity:1"
       d="M 0.99920683,273.34543 2.0575403,277.74 H 22.499186 c 0,-2.43428 -1.959777,-4.39457 -4.394047,-4.39457 z m 1.05833347,7.0957 V 293.8429 H 6.451588 v -13.40177 z m 8.0237987,0 v 13.40177 h 4.394047 v -13.40177 z m 8.0238,0 v 13.40177 h 4.394047 v -13.40177 z"
       id="rect815-1-6-6-5-1-6-1-8-0"
       sodipodi:nodetypes="cccscccccccccccccccc" />
    <path
       inkscape:connector-curvature="0"
       style="opacity:1;fill:#070905;fill-opacity:1;fill-rule:nonzero;stroke:#000000;stroke-width:0.70555556;stroke-linecap:round;stroke-linejoin:miter;stroke-miterlimit:4;stroke-dasharray:none;stroke-dashoffset:0;stroke-opacity:1"
       d="m 29.92354,273.34543 c -2.43427,0 -4.394047,1.96029 -4.394047,4.39457 H 40.99263 v -4.39457 z m -4.394047,7.0957 v 13.40177 h 4.394047 v -13.40177 z"
       id="path1007-7-4-9-0-1-6-3-0-4" />
    <path
       inkscape:connector-curvature="0"
       style="opacity:1;fill:#070905;fill-opacity:1;fill-rule:nonzero;stroke:#000000;stroke-width:0.70555556;stroke-linecap:round;stroke-linejoin:miter;stroke-miterlimit:4;stroke-dasharray:none;stroke-dashoffset:0;stroke-opacity:1"
       d="M 43.693758,273.34543 V 277.74 h 4.394047 v -4.39457 z m 0,7.0957 v 13.40177 h 4.394047 v -13.40177 z"
       id="rect815-8-8-3-2-64-0-4-2-4-2" />
    <path
       inkscape:connector-curvature="0"
       style="opacity:1;fill:#070905;fill-opacity:1;fill-rule:nonzero;stroke:#000000;stroke-width:0.70555556;stroke-linecap:round;stroke-linejoin:miter;stroke-miterlimit:4;stroke-dasharray:none;stroke-dashoffset:0;stroke-opacity:1"
       d="m 55.18298,273.34543 c -2.43427,0 -4.394049,1.96029 -4.394049,4.39457 H 66.25207 v -4.39457 z m -4.394049,7.0957 c 0,2.43427 1.959779,4.39405 4.394049,4.39405 h 5.087543 c 1.110758,0 1.5875,0.65346 1.5875,1.58388 v 1.44642 c 0,0.93042 -0.476742,1.58337 -1.5875,1.58337 h -9.481592 v 4.39405 h 11.069092 c 2.431492,-0.11624 4.394047,-1.95978 4.394047,-4.39405 v -4.61367 c 0,-2.43427 -1.959777,-4.39405 -4.394047,-4.39405 z"
       id="path1007-6-5-5-4-2-1-6-1-2-2" />
    <g
       transform="translate(-24.807664,57.328622)"
       id="g1222-7-0-1-4-6-5-5-9-2"
       style="fill:#070905;fill-opacity:1;stroke-width:0.70555556;stroke-miterlimit:4;stroke-dasharray:none"
       inkscape:export-filename="/tmp/mrisc-logo.png"
       inkscape:export-xdpi="191.3"
       inkscape:export-ydpi="191.3">
      <path
         inkscape:connector-curvature="0"
         id="path1007-6-9-8-5-5-2-7-9-6-9-6-0"
         transform="scale(0.26458333)"
         style="opacity:1;fill:#070905;fill-opacity:1;fill-rule:nonzero;stroke:#000000;stroke-width:2.66666675;stroke-linecap:round;stroke-linejoin:miter;stroke-miterlimit:4;stroke-dasharray:none;stroke-dashoffset:0;stroke-opacity:1"
         d="m 354.37891,877.30664 c 0,9.20039 7.40703,16.60742 16.60742,16.60742 h 41.83594 v -16.60742 h -35.83594 c -4.19814,0 -6,-2.46874 -6,-5.98526 v -28.05966 h -16.60742 z m 16.60795,-60.86353 c -9.20039,0 -16.60742,7.40704 -16.60742,16.60745 h 58.44339 v -16.60745 z" />
    </g>
  </g>
</svg>
